PathFileType	4	(X/Y/Z)	walk-thru1-1-TP.trc
DataRate	CameraRate	NumFrames	NumMarkers	Units	OrigDataRate	OrigDataStartFrame	OrigNumFrames
120.00	120.00	       4	60	mm	120.00	322	       514
Frame#	Time	Top.Head			Front.Head			Rear.Head			Jaw			C7			R.Clavicle			L.Clavicle			R.Shoulder			L.Shoulder			R.Scapula			L.Scapula			R.Scap.Inf			R.Biceps.Lateral			R.Elbow			R.Elbow.Medial			R.Forearm			R.Ulna			R.Radius			R.Wrist			R.Thumb.M1			R.Thumb.M2			R.Thumb.M3			R.Finger3.M1			R.Finger3.M2			R.Finger3.M3			L.Biceps.Lateral			L.Elbow			L.Elbow.Medial			L.Forearm			L.Ulna			L.Radius			L.Wrist			L.Thumb.M1			L.Thumb.M2			L.Thumb.M3			L.Finger3.M1			L.Finger3.M2			L.Finger3.M3			V.Sacral			R.ASIS			L.ASIS			R.Thigh			R.Thigh.Front			R.Knee			R.Knee.Medial			R.Shank			R.Ankle			R.Ankle.Medial			R.Heel			R.Toe			R.MedFoot			L.Thigh			L.Knee			L.Knee.Medial			L.Shank			L.Ankle			L.Ankle.Medial			L.Heel			L.Toe			L.MedFoot			V_mid_ASIS			V_R_Knee_JC			V_L_Knee_JC			V_R_Elbow_JC			V_L_Elbow_JC			V_R_Ankle_JC			V_L_Ankle_JC			V_R_Wrist_JC			V_L_Wrist_JC			V_R_ScaTrpz_1stMC_JC			V_R_1stMC_1stPP_JC			V_R_1stPP_1stDP_JC			V_R_LunCap_3rdMC_JC			V_R_3rdMC_3rdPP_JC			V_R_3rdPP_3rdMP_JC			V_R_3rdMP_3rdDP_JC			V_L_ScaTrpz_1stMC_JC			V_L_1stMC_1stPP_JC			V_L_1stPP_1stDP_JC			V_L_LunCap_3rdMC_JC			V_L_3rdMC_3rdPP_JC			V_L_3rdPP_3rdMP_JC			V_L_3rdMP_3rdPP_JC			V_ROOT_JC			V_R_Hip_JC			V_L_Hip_JC			V_R_GlenHum_JC			V_L_GlenHum_JC			V_ForeHead_Ctr			V_Vertex			V_Sagit_Lambdoid_Suture			V_R_FrontoTemp			V_L_FrontoTemporal			V_R_ParietalOccip			V_L_ParietalOcciptal			V_R_Temporal			V_L_Temporal			V_mid_FrontRearHead			V_mid_RLGlenHumCtrs			V_C7_vert			V_C1_vert			V_Mid_Hip			
		X1	Y1	Z1	X2	Y2	Z2	X3	Y3	Z3	X4	Y4	Z4	X5	Y5	Z5	X6	Y6	Z6	X7	Y7	Z7	X8	Y8	Z8	X9	Y9	Z9	X10	Y10	Z10	X11	Y11	Z11	X12	Y12	Z12	X13	Y13	Z13	X14	Y14	Z14	X15	Y15	Z15	X16	Y16	Z16	X17	Y17	Z17	X18	Y18	Z18	X19	Y19	Z19	X20	Y20	Z20	X21	Y21	Z21	X22	Y22	Z22	X23	Y23	Z23	X24	Y24	Z24	X25	Y25	Z25	X26	Y26	Z26	X27	Y27	Z27	X28	Y28	Z28	X29	Y29	Z29	X30	Y30	Z30	X31	Y31	Z31	X32	Y32	Z32	X33	Y33	Z33	X34	Y34	Z34	X35	Y35	Z35	X36	Y36	Z36	X37	Y37	Z37	X38	Y38	Z38	X39	Y39	Z39	X40	Y40	Z40	X41	Y41	Z41	X42	Y42	Z42	X43	Y43	Z43	X44	Y44	Z44	X45	Y45	Z45	X46	Y46	Z46	X47	Y47	Z47	X48	Y48	Z48	X49	Y49	Z49	X50	Y50	Z50	X51	Y51	Z51	X52	Y52	Z52	X53	Y53	Z53	X54	Y54	Z54	X55	Y55	Z55	X56	Y56	Z56	X57	Y57	Z57	X58	Y58	Z58	X59	Y59	Z59	X60	Y60	Z60	

322	2.675	-677.94763	-3.37538	1761.60950	-765.68677	3.39810	1631.66150	-538.81433	-1.01054	1700.63574	-661.25800	1.96130	1466.77332	-437.25003	14.72621	1577.22498	-541.19141	126.70074	1491.54846	-524.73071	-118.33919	1483.17688	-502.19531	236.83307	1483.58081	-464.59448	-217.01717	1486.74402	-376.07919	118.85326	1488.36401	-355.87817	-70.98779	1485.58521	-343.42709	123.65688	1400.28784	-467.04431	273.28479	1343.08301	-402.55396	310.96805	1164.40820	-393.79962	213.49007	1155.83923	-497.16034	289.26117	1096.46545	-440.59061	311.70560	963.85693	-545.08026	281.37384	928.16656	-559.17194	329.07266	906.41168	-565.13446	278.26810	878.72217	-560.85309	260.53223	827.66028	-557.31323	271.68158	775.81580	-576.02930	353.86566	829.52216	-537.72687	341.31873	760.11621	-502.43140	291.05258	776.73743	-392.27988	-234.19485	1345.91992	-317.16129	-233.02699	1181.14941	-315.48306	-135.33418	1160.98975	-393.66238	-237.59647	1092.47034	-324.38681	-252.56779	992.95416	-417.32864	-238.37537	929.80713	-390.57880	-278.67706	897.25140	-435.60660	-237.98637	873.09961	-452.89703	-212.98488	827.64166	-456.76382	-212.81314	777.78528	-407.78723	-287.25439	796.45624	-405.80206	-254.36324	738.84076	-400.83969	-194.10394	744.08502	-302.40063	18.60721	1127.78088	-498.93561	200.16333	1058.81470	-483.23785	-153.27628	1072.03943	-447.72293	185.29735	679.29749	-502.02646	91.32211	574.19208	-452.20923	152.50972	518.69110	-433.54602	42.61564	518.94946	-430.99081	108.68615	302.28799	-315.21100	135.19638	84.03700	-326.90680	32.90929	106.89048	-248.81445	89.33442	50.28745	-484.11652	92.09137	39.09425	-420.13400	57.62258	78.22158	-529.84821	-164.76703	690.43842	-565.43347	-143.71786	547.80969	-568.13690	-30.50906	526.91718	-585.19580	-100.38277	342.26297	-494.04727	-109.75980	92.75685	-548.84491	-23.30647	124.93259	-464.55157	-35.31792	57.89598	-669.90894	-111.76696	67.89478	-616.70044	-68.92130	103.84336																																																																																																																															
323	2.683	-682.72308	-4.38103	1761.24390	-771.77649	2.38155	1629.89648	-543.07861	-0.92858	1700.07837	-666.02692	1.86577	1465.72888	-444.14856	16.05164	1576.60522	-547.41626	126.58680	1490.61853	-530.80145	-119.27697	1481.94397	-506.21277	236.38162	1483.03052	-470.45572	-216.71825	1486.10779	-382.03986	117.53239	1488.14001	-360.95398	-70.54736	1485.02515	-348.32013	122.11634	1399.75366	-470.92981	272.44385	1343.41516	-408.81461	310.64499	1164.19983	-401.26840	213.89891	1153.02319	-503.00299	289.81216	1096.46350	-445.54468	312.06238	963.57489	-550.95398	281.60529	928.75769	-563.34210	328.72440	905.13715	-568.61682	277.14444	879.15497	-564.61591	257.35471	828.01184	-557.32257	265.48209	777.94861	-580.17090	351.94064	826.49542	-540.74011	336.80200	758.62115	-504.86389	287.56467	778.02411	-398.65625	-235.47614	1344.59619	-323.50214	-234.04277	1179.86279	-321.64319	-137.13902	1161.25647	-399.82068	-238.33521	1091.22485	-329.32932	-252.82014	991.54803	-422.35767	-239.93306	928.23114	-397.18280	-279.21063	896.99036	-441.46909	-238.30505	871.76550	-458.63080	-214.17203	827.80493	-463.21027	-212.87538	776.76532	-413.72641	-288.42856	795.77295	-411.31622	-255.09518	738.37085	-408.05826	-195.62706	742.19586	-308.07260	18.43002	1127.10889	-503.93607	199.49687	1058.45007	-488.37610	-153.57098	1070.66321	-450.42508	184.80710	678.45428	-504.40082	91.29733	573.35333	-454.51129	152.15392	517.80499	-435.58463	40.62128	519.07178	-432.44247	107.77316	301.72873	-316.40421	135.35663	84.54641	-327.10214	32.53636	106.90137	-248.91925	89.33484	50.56244	-484.20074	92.42683	39.20898	-420.41479	57.57841	78.17717	-533.45410	-165.91342	689.62036	-569.57251	-142.39928	547.53125	-571.25909	-31.96669	526.67023	-594.49701	-99.69227	342.71579	-511.78262	-110.16451	89.66319	-566.45984	-23.76925	124.09377	-484.28543	-35.13586	54.87824	-689.55615	-113.62840	70.29139	-635.41101	-70.06261	104.78445																																																																																																																															
324	2.692	-687.99725	-5.17272	1759.31299	-778.10614	2.42937	1629.63977	-548.94397	-2.46997	1698.12769	-671.78687	2.43226	1464.10876	-449.72165	14.79896	1575.65833	-552.45715	125.13956	1490.24744	-536.37543	-119.79198	1481.25439	-511.30228	235.65666	1482.78137	-476.69199	-218.15405	1484.52478	-387.75705	116.69101	1487.29272	-366.47183	-72.63898	1484.43726	-353.73178	122.82281	1398.70239	-476.91730	272.39581	1343.16956	-414.07886	310.60663	1163.54211	-404.93604	213.68779	1153.57642	-508.20090	291.70432	1096.55518	-450.57657	311.78906	963.49750	-556.79883	282.12299	928.73859	-567.42303	328.86810	904.90594	-573.58508	277.27054	880.22522	-568.09967	255.02417	830.55182	-559.06378	259.20621	778.72076	-584.38177	349.79895	824.14594	-543.15002	331.27332	757.92981	-507.35471	282.60812	778.82495	-404.79883	-236.39706	1344.75916	-328.18210	-235.07642	1178.78076	-326.31497	-137.78146	1158.63281	-406.59720	-240.32626	1090.19861	-336.54230	-254.53264	990.85510	-427.55542	-240.13568	927.94019	-402.61392	-279.71371	896.13788	-447.75610	-239.62558	870.87872	-463.54166	-214.27786	826.28229	-468.28534	-214.00362	776.29126	-419.88736	-289.20114	794.81830	-417.51221	-254.87129	737.45123	-411.33563	-195.47743	741.12524	-313.34933	17.52922	1126.16711	-509.43588	199.26450	1058.03308	-493.92413	-154.99438	1069.02515	-455.76297	184.55327	677.32013	-508.18103	91.20658	571.58160	-457.59225	152.19983	516.97083	-439.11533	40.52962	518.40662	-435.12909	107.94411	301.30658	-317.02487	135.28513	84.56326	-327.66040	32.29567	107.00011	-248.97302	89.22993	50.86560	-484.20480	92.37637	39.10581	-420.16129	56.69582	78.09222	-536.28558	-165.25777	688.43304	-574.22290	-142.63873	547.92114	-575.99719	-30.57607	525.94232	-604.42755	-100.11393	343.68845	-529.22754	-110.49094	88.40508	-583.06525	-24.04650	124.58640	-503.38907	-34.37706	53.25639	-708.36865	-113.65101	70.96296	-653.00848	-70.65678	105.17543																																																																																																																															
325	2.700	-695.03784	-6.44937	1758.84766	-783.77887	2.21682	1628.80798	-555.34497	-4.66784	1698.42749	-677.43140	0.97529	1463.08252	-455.74957	15.26683	1576.06604	-557.62323	124.07302	1489.26233	-542.38635	-120.55825	1480.46460	-516.02698	234.20882	1482.71497	-482.81873	-218.59543	1483.83936	-391.54755	116.01342	1486.38696	-372.64789	-72.22608	1482.62500	-359.82407	122.91607	1396.68945	-482.15387	272.48233	1342.77954	-419.07526	309.77261	1163.51428	-412.22003	212.75206	1152.06445	-512.73462	292.43433	1096.83972	-456.22766	310.76904	962.23248	-562.01013	283.04941	929.19690	-573.12048	328.63248	903.42456	-579.83679	276.79477	881.17621	-570.34955	251.57904	832.12518	-561.06750	256.01208	780.49609	-587.50250	346.43604	822.12640	-546.87415	326.54654	757.39728	-509.88843	278.21484	778.71472	-409.86862	-238.39592	1343.14856	-334.46201	-237.52760	1177.90808	-332.31049	-139.57156	1157.54236	-411.66269	-240.39876	1089.46399	-341.91171	-255.49081	989.50024	-433.37497	-240.90466	926.39240	-407.85370	-280.79166	895.07300	-453.82465	-240.04242	870.84607	-469.35324	-213.34772	825.13074	-474.52045	-214.90570	774.89844	-425.20331	-289.13464	793.64734	-425.02872	-256.06369	735.58398	-418.54797	-197.17419	740.75885	-319.12378	17.18399	1125.59241	-514.63989	198.81020	1057.04004	-499.56024	-154.07773	1068.61121	-458.97778	184.20326	676.36548	-511.61938	90.68530	570.10498	-460.62766	151.44102	516.27448	-442.48767	40.07157	517.36639	-436.08691	107.55820	300.31583	-317.07211	135.21791	84.38824	-327.72113	32.38242	106.74515	-248.72935	88.66457	51.32131	-484.25565	92.44656	39.04081	-420.16248	56.08212	77.89241	-539.55353	-165.47307	687.01013	-578.15845	-141.15860	547.59039	-579.79315	-31.08253	525.63110	-614.38245	-101.02026	345.21185	-546.40448	-110.13887	87.82312	-600.94403	-25.28890	124.59245	-521.10046	-35.49873	52.10022	-726.02795	-115.25723	72.13625	-670.17914	-71.71687	105.56884																																																																																																																															
